<svg width="28" height="35" viewBox="0 0 28 35" fill="none" xmlns="http://www.w3.org/2000/svg">
<path d="M3.5 35C2.5375 35 1.71383 34.6576 1.029 33.9728C0.343 33.2868 0 32.4625 0 31.5V11.9437C0 11.4771 0.0875002 11.032 0.2625 10.6085C0.4375 10.1862 0.685416 9.81458 1.00625 9.49375L9.49375 1.00625C9.81458 0.685417 10.1862 0.4375 10.6085 0.2625C11.032 0.0875002 11.4771 0 11.9437 0H24.5C25.4625 0 26.2868 0.342416 26.9727 1.02725C27.6576 1.71325 28 2.5375 28 3.5V31.5C28 32.4625 27.6576 33.2868 26.9727 33.9728C26.2868 34.6576 25.4625 35 24.5 35H3.5ZM14 25.5063C14.2333 25.5063 14.4521 25.4695 14.6562 25.396C14.8604 25.3237 15.05 25.2 15.225 25.025L19.8188 20.4312C20.1396 20.1104 20.3 19.7167 20.3 19.25C20.3 18.7833 20.125 18.375 19.775 18.025C19.4542 17.7042 19.0458 17.5362 18.55 17.521C18.0542 17.507 17.6458 17.675 17.325 18.025L15.75 19.5125V14C15.75 13.5042 15.5826 13.0882 15.2478 12.7522C14.9118 12.4174 14.4958 12.25 14 12.25C13.5042 12.25 13.0888 12.4174 12.754 12.7522C12.418 13.0882 12.25 13.5042 12.25 14V19.5125L10.675 17.9812C10.325 17.6604 9.91667 17.5 9.45 17.5C8.98333 17.5 8.575 17.675 8.225 18.025C7.90417 18.3458 7.74375 18.7542 7.74375 19.25C7.74375 19.7458 7.90417 20.1542 8.225 20.475L12.775 25.025C12.95 25.2 13.1396 25.3237 13.3438 25.396C13.5479 25.4695 13.7667 25.5063 14 25.5063Z" fill="#232323"/>
</svg>
