<svg width="47" height="32" viewBox="0 0 47 32" fill="none" xmlns="http://www.w3.org/2000/svg">
<path d="M4.69992 32V4.57209H23.4996V18.286C23.5033 19.4973 23.9997 20.658 24.8803 21.5145C25.7609 22.371 26.9542 22.8537 28.1995 22.8574H42.2993V32H46.9992V18.286C47.0075 17.9857 46.9488 17.6871 46.8271 17.4109C46.7054 17.1347 46.5236 16.8874 46.2942 16.6861L29.8445 0.686475C29.6376 0.463268 29.3834 0.286371 29.0994 0.167989C28.8154 0.0496074 28.5084 -0.00744171 28.1995 0.000777216H4.69992C3.45457 0.00439479 2.26129 0.487176 1.38068 1.34368C0.500083 2.20019 0.00371935 3.36082 0 4.57209V32H4.69992ZM28.1995 5.48636L41.3593 18.286H28.1995V5.48636Z" fill="#C1C1C1"/>
</svg>
