<svg width="90" height="13" viewBox="0 0 90 13" fill="none" xmlns="http://www.w3.org/2000/svg">
<path d="M6.99985 10.8909L3.60676 12.8783C3.45687 12.971 3.30016 13.0108 3.13664 12.9975C2.97312 12.9843 2.83003 12.9313 2.70739 12.8385C2.58475 12.7458 2.48936 12.63 2.42123 12.4911C2.3531 12.3517 2.33947 12.1959 2.38035 12.0237L3.27972 8.26753L0.275003 5.74355C0.138735 5.62431 0.0537031 5.48837 0.0199086 5.33574C-0.0144311 5.18364 -0.00434725 5.03472 0.0501601 4.88897C0.104667 4.74323 0.186428 4.62399 0.295443 4.53124C0.404458 4.4385 0.554353 4.37888 0.745129 4.35238L4.71054 4.01452L6.24356 0.476973C6.31169 0.317982 6.41743 0.198739 6.56079 0.119243C6.7036 0.0397478 6.84995 0 6.99985 0C7.14974 0 7.29637 0.0397478 7.43972 0.119243C7.58253 0.198739 7.688 0.317982 7.75613 0.476973L9.28915 4.01452L13.2546 4.35238C13.4453 4.37888 13.5952 4.4385 13.7042 4.53124C13.8133 4.62399 13.895 4.74323 13.9495 4.88897C14.004 5.03472 14.0144 5.18364 13.9806 5.33574C13.9463 5.48837 13.861 5.62431 13.7247 5.74355L10.72 8.26753L11.6193 12.0237C11.6602 12.1959 11.6466 12.3517 11.5785 12.4911C11.5103 12.63 11.4149 12.7458 11.2923 12.8385C11.1697 12.9313 11.0266 12.9843 10.8631 12.9975C10.6995 13.0108 10.5428 12.971 10.3929 12.8783L6.99985 10.8909Z" fill="#FFC700"/>
<path d="M25.9998 10.8909L22.6068 12.8783C22.4569 12.971 22.3002 13.0108 22.1366 12.9975C21.9731 12.9843 21.83 12.9313 21.7074 12.8385C21.5848 12.7458 21.4894 12.63 21.4212 12.4911C21.3531 12.3517 21.3395 12.1959 21.3803 12.0237L22.2797 8.26753L19.275 5.74355C19.1387 5.62431 19.0537 5.48837 19.0199 5.33574C18.9856 5.18364 18.9957 5.03472 19.0502 4.88897C19.1047 4.74323 19.1864 4.62399 19.2954 4.53124C19.4045 4.4385 19.5544 4.37888 19.7451 4.35238L23.7105 4.01452L25.2436 0.476973C25.3117 0.317982 25.4174 0.198739 25.5608 0.119243C25.7036 0.0397478 25.85 0 25.9998 0C26.1497 0 26.2964 0.0397478 26.4397 0.119243C26.5825 0.198739 26.688 0.317982 26.7561 0.476973L28.2892 4.01452L32.2546 4.35238C32.4453 4.37888 32.5952 4.4385 32.7042 4.53124C32.8133 4.62399 32.895 4.74323 32.9495 4.88897C33.004 5.03472 33.0144 5.18364 32.9806 5.33574C32.9463 5.48837 32.861 5.62431 32.7247 5.74355L29.72 8.26753L30.6193 12.0237C30.6602 12.1959 30.6466 12.3517 30.5785 12.4911C30.5103 12.63 30.4149 12.7458 30.2923 12.8385C30.1697 12.9313 30.0266 12.9843 29.8631 12.9975C29.6995 13.0108 29.5428 12.971 29.3929 12.8783L25.9998 10.8909Z" fill="#FFC700"/>
<path d="M44.9998 10.8909L41.6068 12.8783C41.4569 12.971 41.3002 13.0108 41.1366 12.9975C40.9731 12.9843 40.83 12.9313 40.7074 12.8385C40.5848 12.7458 40.4894 12.63 40.4212 12.4911C40.3531 12.3517 40.3395 12.1959 40.3803 12.0237L41.2797 8.26753L38.275 5.74355C38.1387 5.62431 38.0537 5.48837 38.0199 5.33574C37.9856 5.18364 37.9957 5.03472 38.0502 4.88897C38.1047 4.74323 38.1864 4.62399 38.2954 4.53124C38.4045 4.4385 38.5544 4.37888 38.7451 4.35238L42.7105 4.01452L44.2436 0.476973C44.3117 0.317982 44.4174 0.198739 44.5608 0.119243C44.7036 0.0397478 44.85 0 44.9998 0C45.1497 0 45.2964 0.0397478 45.4397 0.119243C45.5825 0.198739 45.688 0.317982 45.7561 0.476973L47.2892 4.01452L51.2546 4.35238C51.4453 4.37888 51.5952 4.4385 51.7042 4.53124C51.8133 4.62399 51.895 4.74323 51.9495 4.88897C52.004 5.03472 52.0144 5.18364 51.9806 5.33574C51.9463 5.48837 51.861 5.62431 51.7247 5.74355L48.72 8.26753L49.6193 12.0237C49.6602 12.1959 49.6466 12.3517 49.5785 12.4911C49.5103 12.63 49.4149 12.7458 49.2923 12.8385C49.1697 12.9313 49.0266 12.9843 48.8631 12.9975C48.6995 13.0108 48.5428 12.971 48.3929 12.8783L44.9998 10.8909Z" fill="#FFC700"/>
<path d="M63.9998 10.8909L60.6068 12.8783C60.4569 12.971 60.3002 13.0108 60.1366 12.9975C59.9731 12.9843 59.83 12.9313 59.7074 12.8385C59.5848 12.7458 59.4894 12.63 59.4212 12.4911C59.3531 12.3517 59.3395 12.1959 59.3803 12.0237L60.2797 8.26753L57.275 5.74355C57.1387 5.62431 57.0537 5.48837 57.0199 5.33574C56.9856 5.18364 56.9957 5.03472 57.0502 4.88897C57.1047 4.74323 57.1864 4.62399 57.2954 4.53124C57.4045 4.4385 57.5544 4.37888 57.7451 4.35238L61.7105 4.01452L63.2436 0.476973C63.3117 0.317982 63.4174 0.198739 63.5608 0.119243C63.7036 0.0397478 63.85 0 63.9998 0C64.1497 0 64.2964 0.0397478 64.4397 0.119243C64.5825 0.198739 64.688 0.317982 64.7561 0.476973L66.2892 4.01452L70.2546 4.35238C70.4453 4.37888 70.5952 4.4385 70.7042 4.53124C70.8133 4.62399 70.895 4.74323 70.9495 4.88897C71.004 5.03472 71.0144 5.18364 70.9806 5.33574C70.9463 5.48837 70.861 5.62431 70.7247 5.74355L67.72 8.26753L68.6193 12.0237C68.6602 12.1959 68.6466 12.3517 68.5785 12.4911C68.5103 12.63 68.4149 12.7458 68.2923 12.8385C68.1697 12.9313 68.0266 12.9843 67.8631 12.9975C67.6995 13.0108 67.5428 12.971 67.3929 12.8783L63.9998 10.8909Z" fill="#FFC700"/>
<path d="M82.9998 10.8909L79.6068 12.8783C79.4569 12.971 79.3002 13.0108 79.1366 12.9975C78.9731 12.9843 78.83 12.9313 78.7074 12.8385C78.5848 12.7458 78.4894 12.63 78.4212 12.4911C78.3531 12.3517 78.3395 12.1959 78.3803 12.0237L79.2797 8.26753L76.275 5.74355C76.1387 5.62431 76.0537 5.48837 76.0199 5.33574C75.9856 5.18364 75.9957 5.03472 76.0502 4.88897C76.1047 4.74323 76.1864 4.62399 76.2954 4.53124C76.4045 4.4385 76.5544 4.37888 76.7451 4.35238L80.7105 4.01452L82.2436 0.476973C82.3117 0.317982 82.4174 0.198739 82.5608 0.119243C82.7036 0.0397478 82.85 0 82.9998 0C83.1497 0 83.2964 0.0397478 83.4397 0.119243C83.5825 0.198739 83.688 0.317982 83.7561 0.476973L85.2892 4.01452L89.2546 4.35238C89.4453 4.37888 89.5952 4.4385 89.7042 4.53124C89.8133 4.62399 89.895 4.74323 89.9495 4.88897C90.004 5.03472 90.0144 5.18364 89.9806 5.33574C89.9463 5.48837 89.861 5.62431 89.7247 5.74355L86.72 8.26753L87.6193 12.0237C87.6602 12.1959 87.6466 12.3517 87.5785 12.4911C87.5103 12.63 87.4149 12.7458 87.2923 12.8385C87.1697 12.9313 87.0266 12.9843 86.8631 12.9975C86.6995 13.0108 86.5428 12.971 86.3929 12.8783L82.9998 10.8909Z" fill="#FFC700"/>
</svg>
